<svg width="271" height="194" viewBox="0 0 271 194" fill="none" xmlns="http://www.w3.org/2000/svg">
  <path d="M100.359 11.7345C99.8983 10.6241 100.537 9.3645 101.705 9.08047C101.811 9.05468 101.92 9.04165 102.029 9.04165H104.248H106.631C108.071 9.04165 109.365 9.91784 109.9 11.2542L132.96 68.8785C133.612 70.5075 135.896 70.5674 136.632 68.9747L163.366 11.1485C163.952 9.88105 165.263 9.10965 166.655 9.21233L168.97 9.38301L171.116 9.54124C171.228 9.54951 171.339 9.5712 171.446 9.60585C172.591 9.97694 173.154 11.2659 172.648 12.3582L140.796 81.1129C140.557 81.6305 140.549 82.2258 140.776 82.7492L182.266 178.434C182.964 180.045 185.25 180.039 185.94 178.425L260.983 2.88651C261.731 1.13567 263.452 0 265.356 0C268.777 0 271.079 3.50359 269.722 6.64367L190.06 190.877C189.269 192.708 187.465 193.893 185.471 193.893H182.76C180.764 193.893 178.959 192.706 178.169 190.873L136.794 94.9243C136.1 93.3135 133.816 93.3135 133.121 94.9243L91.7466 190.873C90.9562 192.706 89.1514 193.893 87.1553 193.893H84.4489C82.4525 193.893 80.6474 192.705 79.8572 190.872L0.383686 6.47232C-0.935508 3.41144 1.30899 0 4.64205 0C6.49638 0 8.17241 1.10474 8.90348 2.80887L84.2409 178.421C84.9333 180.035 87.2207 180.037 87.9156 178.424L129.161 82.7034C129.375 82.2068 129.379 81.6447 129.172 81.1452L100.359 11.7345Z" fill="#151419"/>
</svg>
